<svg xmlns="http://www.w3.org/2000/svg" viewBox="0 0 1920 1080" width="1920" height="1080">
  <title>ParadigmOS wallpaper — Aurora 1 (light variant)</title>
  <defs>
    <linearGradient id="bg" x1="0" y1="0" x2="1" y2="1">
      <stop offset="0" stop-color="#F7FBFC"/>
      <stop offset="0.55" stop-color="#EDF5F6"/>
      <stop offset="1" stop-color="#DFEEF0"/>
    </linearGradient>
    <linearGradient id="band1" x1="0" y1="0" x2="1" y2="0">
      <stop offset="0" stop-color="#1B8A90" stop-opacity="0.04"/>
      <stop offset="0.5" stop-color="#1B8A90" stop-opacity="0.20"/>
      <stop offset="1" stop-color="#2B5D86" stop-opacity="0.08"/>
    </linearGradient>
    <linearGradient id="band2" x1="0" y1="0" x2="1" y2="0">
      <stop offset="0" stop-color="#2B5D86" stop-opacity="0.04"/>
      <stop offset="0.6" stop-color="#2B5D86" stop-opacity="0.16"/>
      <stop offset="1" stop-color="#1B8A90" stop-opacity="0.06"/>
    </linearGradient>
    <linearGradient id="ribbon" x1="0" y1="0" x2="1" y2="0">
      <stop offset="0" stop-color="#1B8A90" stop-opacity="0"/>
      <stop offset="0.5" stop-color="#1B8A90" stop-opacity="0.55"/>
      <stop offset="1" stop-color="#2B5D86" stop-opacity="0"/>
    </linearGradient>
    <radialGradient id="glow" cx="0.78" cy="0.72" r="0.55">
      <stop offset="0" stop-color="#1B8A90" stop-opacity="0.14"/>
      <stop offset="1" stop-color="#1B8A90" stop-opacity="0"/>
    </radialGradient>
    <filter id="soft" x="-20%" y="-20%" width="140%" height="140%"><feGaussianBlur stdDeviation="14"/></filter>
    <filter id="soft2" x="-20%" y="-20%" width="140%" height="140%"><feGaussianBlur stdDeviation="5"/></filter>
  </defs>
  <rect width="1920" height="1080" fill="url(#bg)"/>
  <rect width="1920" height="1080" fill="url(#glow)"/>
  <path d="M0,260 C620,150 1260,330 1920,190 L1920,0 L0,0 Z" fill="url(#band2)" opacity="0.4" filter="url(#soft)"/>
  <path d="M0,780 C420,630 900,910 1380,720 C1630,620 1790,660 1920,590 L1920,1080 L0,1080 Z" fill="url(#band1)" filter="url(#soft)"/>
  <path d="M0,920 C520,770 1040,1010 1500,850 C1700,780 1830,800 1920,750 L1920,1080 L0,1080 Z" fill="url(#band2)" filter="url(#soft)"/>
  <path d="M-60,830 C480,660 980,890 1410,700 C1660,592 1830,640 1980,555" fill="none" stroke="url(#ribbon)" stroke-width="6" filter="url(#soft2)"/>
  <path d="M-60,890 C500,740 1020,960 1450,790 C1690,698 1840,724 1980,655" fill="none" stroke="url(#ribbon)" stroke-width="3" opacity="0.7" filter="url(#soft2)"/>
</svg>
