<svg xmlns="http://www.w3.org/2000/svg" viewBox="0 0 1920 1080" width="1920" height="1080">
  <title>ParadigmOS wallpaper — Curtain (light variant, rev 2): vivid aurora curtains in varied teals and blues on a saturated ground</title>
  <defs>
    <linearGradient id="bg" x1="0" y1="0" x2="0" y2="1">
      <stop offset="0" stop-color="#B9DDE4"/>
      <stop offset="0.6" stop-color="#9FCEDA"/>
      <stop offset="1" stop-color="#83B9CC"/>
    </linearGradient>
    <linearGradient id="f1" x1="0" y1="0" x2="0" y2="1">
      <stop offset="0" stop-color="#2190A4" stop-opacity="0.50"/>
      <stop offset="0.7" stop-color="#2190A4" stop-opacity="0.18"/>
      <stop offset="1" stop-color="#2190A4" stop-opacity="0"/>
    </linearGradient>
    <linearGradient id="f2" x1="0" y1="0" x2="0" y2="1">
      <stop offset="0" stop-color="#2B5D86" stop-opacity="0.44"/>
      <stop offset="0.7" stop-color="#2B5D86" stop-opacity="0.15"/>
      <stop offset="1" stop-color="#2B5D86" stop-opacity="0"/>
    </linearGradient>
    <linearGradient id="f3" x1="0" y1="0" x2="0" y2="1">
      <stop offset="0" stop-color="#4A8ABD" stop-opacity="0.42"/>
      <stop offset="0.7" stop-color="#4A8ABD" stop-opacity="0.14"/>
      <stop offset="1" stop-color="#4A8ABD" stop-opacity="0"/>
    </linearGradient>
    <linearGradient id="f4" x1="0" y1="0" x2="0" y2="1">
      <stop offset="0" stop-color="#176E7E" stop-opacity="0.48"/>
      <stop offset="0.7" stop-color="#176E7E" stop-opacity="0.16"/>
      <stop offset="1" stop-color="#176E7E" stop-opacity="0"/>
    </linearGradient>
    <filter id="soft" x="-40%" y="-40%" width="180%" height="180%"><feGaussianBlur stdDeviation="26"/></filter>
  </defs>
  <rect width="1920" height="1080" fill="url(#bg)"/>
  <g filter="url(#soft)">
    <rect x="100" y="-60" width="170" height="880" fill="url(#f2)" transform="skewX(-6)"/>
    <rect x="360" y="-60" width="250" height="1030" fill="url(#f1)" transform="skewX(-4)"/>
    <rect x="680" y="-60" width="140" height="800" fill="url(#f4)" transform="skewX(-7)"/>
    <rect x="930" y="-60" width="290" height="1080" fill="url(#f1)" transform="skewX(-3)"/>
    <rect x="1290" y="-60" width="170" height="880" fill="url(#f2)" transform="skewX(-6)"/>
    <rect x="1520" y="-60" width="220" height="980" fill="url(#f3)" transform="skewX(-5)"/>
    <rect x="1790" y="-60" width="160" height="900" fill="url(#f4)" transform="skewX(-4)"/>
  </g>
</svg>
