<svg xmlns="http://www.w3.org/2000/svg" viewBox="0 0 1920 1080" width="1920" height="1080">
  <title>ParadigmOS wallpaper — Headland (light variant, rev 3): five sweeping ridge layers filling most of the frame</title>
  <defs>
    <linearGradient id="sky" x1="0" y1="0" x2="0" y2="1">
      <stop offset="0" stop-color="#D9EDF0"/>
      <stop offset="0.6" stop-color="#C2E0E7"/>
      <stop offset="1" stop-color="#ADD3DF"/>
    </linearGradient>
    <radialGradient id="sun" cx="0.68" cy="0.3" r="0.5">
      <stop offset="0" stop-color="#2190A4" stop-opacity="0.28"/>
      <stop offset="1" stop-color="#2190A4" stop-opacity="0"/>
    </radialGradient>
    <linearGradient id="h0" x1="0" y1="0" x2="0" y2="1">
      <stop offset="0" stop-color="#4A8ABD" stop-opacity="0.35"/>
      <stop offset="1" stop-color="#4A8ABD" stop-opacity="0.08"/>
    </linearGradient>
    <linearGradient id="h1" x1="0" y1="0" x2="0" y2="1">
      <stop offset="0" stop-color="#2B5D86" stop-opacity="0.50"/>
      <stop offset="1" stop-color="#2B5D86" stop-opacity="0.12"/>
    </linearGradient>
    <linearGradient id="h2" x1="0" y1="0" x2="0" y2="1">
      <stop offset="0" stop-color="#176E7E" stop-opacity="0.60"/>
      <stop offset="1" stop-color="#176E7E" stop-opacity="0.18"/>
    </linearGradient>
    <linearGradient id="h3" x1="0" y1="0" x2="0" y2="1">
      <stop offset="0" stop-color="#2B5D86" stop-opacity="0.66"/>
      <stop offset="1" stop-color="#2B5D86" stop-opacity="0.26"/>
    </linearGradient>
    <linearGradient id="h4" x1="0" y1="0" x2="0" y2="1">
      <stop offset="0" stop-color="#1A3F5F" stop-opacity="0.78"/>
      <stop offset="1" stop-color="#1A3F5F" stop-opacity="0.34"/>
    </linearGradient>
    <filter id="soft" x="-20%" y="-20%" width="140%" height="140%"><feGaussianBlur stdDeviation="18"/></filter>
  </defs>
  <rect width="1920" height="1080" fill="url(#sky)"/>
  <rect width="1920" height="1080" fill="url(#sun)"/>
  <path d="M0,460 C320,400 640,470 960,430 C1280,392 1600,450 1920,410 L1920,1080 L0,1080 Z"
        fill="url(#h0)" filter="url(#soft)"/>
  <path d="M0,590 C300,525 560,610 860,560 C1180,505 1420,590 1920,530 L1920,1080 L0,1080 Z"
        fill="url(#h1)" filter="url(#soft)"/>
  <path d="M0,720 C360,650 640,750 980,690 C1320,632 1560,730 1920,660 L1920,1080 L0,1080 Z"
        fill="url(#h2)" filter="url(#soft)"/>
  <path d="M0,845 C420,775 760,885 1120,815 C1440,755 1680,855 1920,795 L1920,1080 L0,1080 Z"
        fill="url(#h3)" filter="url(#soft)"/>
  <path d="M0,955 C480,885 880,995 1280,925 C1560,877 1760,955 1920,915 L1920,1080 L0,1080 Z"
        fill="url(#h4)" filter="url(#soft)"/>
</svg>
