<svg xmlns="http://www.w3.org/2000/svg" viewBox="0 0 1920 1080" width="1920" height="1080">
  <title>ParadigmOS wallpaper — Headland (dark variant, rev 3): five dusk ridge layers filling the frame under a teal afterglow</title>
  <defs>
    <linearGradient id="sky" x1="0" y1="0" x2="0" y2="1">
      <stop offset="0" stop-color="#0E1E2C"/>
      <stop offset="0.65" stop-color="#153349"/>
      <stop offset="1" stop-color="#1B4258"/>
    </linearGradient>
    <radialGradient id="afterglow" cx="0.68" cy="0.36" r="0.5">
      <stop offset="0" stop-color="#2190A4" stop-opacity="0.44"/>
      <stop offset="1" stop-color="#2190A4" stop-opacity="0"/>
    </radialGradient>
    <linearGradient id="h0" x1="0" y1="0" x2="0" y2="1">
      <stop offset="0" stop-color="#2F6DA0" stop-opacity="0.42"/>
      <stop offset="1" stop-color="#2F6DA0" stop-opacity="0.10"/>
    </linearGradient>
    <linearGradient id="h1" x1="0" y1="0" x2="0" y2="1">
      <stop offset="0" stop-color="#24537D" stop-opacity="0.58"/>
      <stop offset="1" stop-color="#24537D" stop-opacity="0.16"/>
    </linearGradient>
    <linearGradient id="h2" x1="0" y1="0" x2="0" y2="1">
      <stop offset="0" stop-color="#1B4A66" stop-opacity="0.70"/>
      <stop offset="1" stop-color="#1B4A66" stop-opacity="0.24"/>
    </linearGradient>
    <linearGradient id="h3" x1="0" y1="0" x2="0" y2="1">
      <stop offset="0" stop-color="#17455C" stop-opacity="0.82"/>
      <stop offset="1" stop-color="#17455C" stop-opacity="0.32"/>
    </linearGradient>
    <linearGradient id="h4" x1="0" y1="0" x2="0" y2="1">
      <stop offset="0" stop-color="#102A40" stop-opacity="0.95"/>
      <stop offset="1" stop-color="#102A40" stop-opacity="0.55"/>
    </linearGradient>
    <linearGradient id="rim" x1="0" y1="0" x2="1" y2="0">
      <stop offset="0" stop-color="#4FBACD" stop-opacity="0"/>
      <stop offset="0.55" stop-color="#4FBACD" stop-opacity="0.8"/>
      <stop offset="1" stop-color="#4FBACD" stop-opacity="0"/>
    </linearGradient>
    <filter id="soft" x="-20%" y="-20%" width="140%" height="140%"><feGaussianBlur stdDeviation="18"/></filter>
    <filter id="soft2" x="-20%" y="-20%" width="140%" height="140%"><feGaussianBlur stdDeviation="4"/></filter>
  </defs>
  <rect width="1920" height="1080" fill="url(#sky)"/>
  <rect width="1920" height="1080" fill="url(#afterglow)"/>
  <path d="M0,460 C320,400 640,470 960,430 C1280,392 1600,450 1920,410 L1920,1080 L0,1080 Z"
        fill="url(#h0)" filter="url(#soft)"/>
  <path d="M0,590 C300,525 560,610 860,560 C1180,505 1420,590 1920,530 L1920,1080 L0,1080 Z"
        fill="url(#h1)" filter="url(#soft)"/>
  <path d="M0,720 C360,650 640,750 980,690 C1320,632 1560,730 1920,660 L1920,1080 L0,1080 Z"
        fill="url(#h2)" filter="url(#soft)"/>
  <path d="M0,845 C420,775 760,885 1120,815 C1440,755 1680,855 1920,795 L1920,1080 L0,1080 Z"
        fill="url(#h3)" filter="url(#soft)"/>
  <path d="M0,957 C480,887 880,997 1280,927 C1560,879 1760,957 1920,917"
        fill="none" stroke="url(#rim)" stroke-width="4" filter="url(#soft2)"/>
  <path d="M0,955 C480,885 880,995 1280,925 C1560,877 1760,955 1920,915 L1920,1080 L0,1080 Z"
        fill="url(#h4)" filter="url(#soft)"/>
</svg>
