<svg xmlns="http://www.w3.org/2000/svg" viewBox="0 0 1920 1080" width="1920" height="1080">
  <title>ParadigmOS wallpaper — Shift (light variant, rev 3): a diagonal cascade of tiles rising across the canvas toward one teal escapee</title>
  <defs>
    <linearGradient id="bg" x1="0" y1="0" x2="1" y2="1">
      <stop offset="0" stop-color="#C6E7E6"/>
      <stop offset="0.55" stop-color="#B0DBDD"/>
      <stop offset="1" stop-color="#9CCED6"/>
    </linearGradient>
    <radialGradient id="glow" cx="0.85" cy="0.42" r="0.55">
      <stop offset="0" stop-color="#2190A4" stop-opacity="0.22"/>
      <stop offset="1" stop-color="#2190A4" stop-opacity="0"/>
    </radialGradient>
    <radialGradient id="washBlue" cx="0.08" cy="0.1" r="0.7">
      <stop offset="0" stop-color="#2B5D86" stop-opacity="0.14"/>
      <stop offset="1" stop-color="#2B5D86" stop-opacity="0"/>
    </radialGradient>
    <filter id="soft" x="-30%" y="-30%" width="160%" height="160%"><feGaussianBlur stdDeviation="3"/></filter>
  </defs>
  <rect width="1920" height="1080" fill="url(#bg)"/>
  <rect width="1920" height="1080" fill="url(#washBlue)"/>
  <rect width="1920" height="1080" fill="url(#glow)"/>
  <g fill="#4A8ABD" filter="url(#soft)">
    <rect x="120" y="140" width="84" height="84" rx="20" opacity="0.08"/>
    <rect x="380" y="260" width="84" height="84" rx="20" opacity="0.10"/>
    <rect x="120" y="890" width="84" height="84" rx="20" opacity="0.14"/>
    <rect x="250" y="1010" width="84" height="84" rx="20" opacity="0.12"/>
    <rect x="250" y="760" width="84" height="84" rx="20" opacity="0.18"/>
    <rect x="380" y="890" width="96" height="96" rx="22" opacity="0.20"/>
    <rect x="510" y="1010" width="96" height="96" rx="22" opacity="0.16"/>
    <rect x="510" y="760" width="96" height="96" rx="22" opacity="0.22"/>
    <rect x="640" y="890" width="96" height="96" rx="22" opacity="0.24"/>
    <rect x="770" y="630" width="96" height="96" rx="22" opacity="0.20"/>
    <rect x="770" y="1010" width="96" height="96" rx="22" opacity="0.18"/>
    <rect x="900" y="760" width="96" height="96" rx="22" opacity="0.26"/>
    <rect x="1030" y="890" width="96" height="96" rx="22" opacity="0.28"/>
    <rect x="1030" y="630" width="96" height="96" rx="22" opacity="0.22"/>
    <rect x="1160" y="760" width="96" height="96" rx="22" opacity="0.30"/>
    <rect x="1290" y="500" width="96" height="96" rx="22" opacity="0.24"/>
    <rect x="1290" y="890" width="96" height="96" rx="22" opacity="0.26"/>
    <rect x="1420" y="630" width="96" height="96" rx="22" opacity="0.32"/>
    <rect x="1550" y="760" width="104" height="104" rx="24" opacity="0.30"/>
    <rect x="1680" y="890" width="96" height="96" rx="22" opacity="0.26"/>
    <rect x="1810" y="1010" width="96" height="96" rx="22" opacity="0.18"/>
  </g>
  <g fill="#1A3F5F" filter="url(#soft)">
    <rect x="1160" y="500" width="96" height="96" rx="22" opacity="0.34"/>
    <rect x="1420" y="890" width="96" height="96" rx="22" opacity="0.38"/>
    <rect x="1550" y="500" width="96" height="96" rx="22" opacity="0.34"/>
    <rect x="1680" y="630" width="104" height="104" rx="24" opacity="0.40"/>
    <rect x="1810" y="760" width="96" height="96" rx="22" opacity="0.34"/>
  </g>
  <rect x="1660" y="360" width="112" height="112" rx="26" fill="#2190A4" opacity="0.9"
        transform="rotate(14 1716 416)"/>
</svg>
